# xmcd
#
# Track frame offsets:
#	150
#	14527
#	30177
#	41922
#	60650
#	79329
#	98607
#	117777
#	130285
#	144807
#	160470
#	172182
#	191102
#	209782
#	229067
#	248227
#
# Disc length: 3476 seconds
#
# Revision: 1
# Processed by: cddbd v1.5.1PL2 Copyright (c) Steve Scherf et al.
# Submitted via: audiograbber 1.83.01
#
DISCID=e10d9210
DTITLE=Sound Choice - sc2117
DYEAR=1900
DGENRE=
TTITLE0=Williams, Hank Jr - All My Rowdy Friends
TTITLE1=Nelson, Willie and Jennings, Waylon - Good Hearted Woman
TTITLE2=Nelson, Willie - On The Road Again
TTITLE3=Oak Ridge Boys - Elvira
TTITLE4=Alabama - Mountain Music
TTITLE5=Williams, Hank Jr - Family Tradition
TTITLE6=Little Texas - God Blessed Texas
TTITLE7=Johnny Paycheck - Take This Job And Shove It
TTITLE8=Williams, Hank Jr - All My Rowdy Friends (Vocal)
TTITLE9=Nelson, Willie and Jennings, Waylon - Good Hearted Woman (Vocal)
TTITLE10=Nelson, Willie - On The Road Again (Vocal)
TTITLE11=Oak Ridge Boys - Elvira (Vocal)
TTITLE12=Alabama - Mountain Music (Vocal)
TTITLE13=Williams, Hank Jr - Family Tradition (Vocal)
TTITLE14=Little Texas - God Blessed Texas (Vocal)
TTITLE15=Johnny Paycheck - Take This Job And Shove It (Vocal)
EXTD=
EXTT0=
EXTT1=
EXTT2=
EXTT3=
EXTT4=
EXTT5=
EXTT6=
EXTT7=
EXTT8=
EXTT9=
EXTT10=
EXTT11=
EXTT12=
EXTT13=
EXTT14=
EXTT15=
PLAYORDER=
